<?xml version="1.0" encoding="UTF-8"?>
<!-- Generator: Adobe Illustrator 18.0.0, SVG Export Plug-In . SVG Version: 6.00 Build 0)  -->
<!DOCTYPE svg PUBLIC "-//W3C//DTD SVG 1.1//EN" "http://www.w3.org/Graphics/SVG/1.1/DTD/svg11.dtd">
<svg version="1.1" id="Слой_1" xmlns="http://www.w3.org/2000/svg" xmlns:xlink="http://www.w3.org/1999/xlink" x="0px" y="0px" viewBox="0 0 354.3 354.3" enable-background="new 0 0 354.3 354.3" xml:space="preserve">
<g>
	<circle opacity="0.35" fill="#B7E1E9" cx="177.3" cy="177.3" r="177.6"/>
	<g>
		<path fill="#28296B" d="M309.2,211.6l-0.4-0.7c-1.1,0.2-18.2,0-262.4,0v5c135.8,0,200.1,0.4,230.1,0c35.3-0.5,32.6-0.5,32.6-1.6    L309.2,211.6z"/>
		<path fill="#1072BA" d="M46.9,207.7c1.1,0,2.9-1.5,11.6-9.7c2.6,2.5,5.8,5.5,9.6,9.2l3.5-3.6c-3.7-3.6-6.8-6.5-9.4-9    c2.7-2.6,5.8-5.6,9.6-9.2l-3.5-3.6c-3.9,3.7-7.1,6.8-9.8,9.3c-10.8-10.2-11.1-10.2-12.5-9.7l0.8,2.5l-1.5,1.9    c0.2,0.1,1.4,1.2,9.5,8.8c-7.9,7.5-9.2,8.5-9.3,8.6l1.4,2.1l-0.8,2.4C46.4,207.6,46.6,207.7,46.9,207.7z"/>
		<path fill="#602A79" d="M141,196.2c-0.1-0.1-0.1-0.2-0.1-0.2c0.4-0.2,0.8-0.5,1.2-0.7C142.6,195,141,196.3,141,196.2z     M195.4,176.7c-0.6,0.4-1.1,0.6-1.6,0.9c0.1-0.1,0.2-0.2,0.2-0.2C194.4,177.1,195.8,176.4,195.4,176.7z M207.5,192.2    c1.3-0.7-2.3,1.7-3.7,2.1c0,0,0,0-0.1,0C205,193.6,206.3,192.9,207.5,192.2z M220.2,186.1c-0.7,0.4-1.4,0.8-2,1.2    c0,0,0.1-0.1,0.1-0.1C218.9,186.8,220.8,185.7,220.2,186.1z M111.6,199.1c3.5-3.2,6.2-7.2,9-11c7-10.8,13.1-22.2,19.6-33.3    c0.8-1.3,1.5-2.6,2.3-3.9c-1,5.5-2.4,10.9-3.7,16.3c-1.9,7.6-4.3,15.2-5.9,22.9c-0.5,3.3-0.5,6.5-0.5,9.8c0.2,1.2,0.9,2.1,2.2,1.3    c8-4.5,7.9-4.3,12.7-8.8c0.1-0.1,0.2-0.2,0.3-0.3c1,1.1,2.2,3.5,2.8,4.6c1.5,2.3,2.7,3.1,5.5,3c3.1-0.8,6.3-1.4,9.5-1.7    c1.8-0.1,1.4-0.1,2.4-0.2c-0.6,0.5-1.2,1-1.9,1.5l12.5-5c3.3-2.4,5.9-5.4,8.5-8.4c1.8,3.7,2.4,8,2.9,12c0.2,0.7,0.2,1.4,0.5,2    c1.4,3.1,4.7,2,7,0.7c4.6-2.7,9.1-5.5,13.7-8.2c0.3-0.2,0.6-0.4,0.9-0.7c0.3,0,0.5,0,0.8,0.1c1.3,0.4,2.4,1.4,3.5,2.1    c1.7,1,1.5,0.8,3.4,1.6c4.6,1.2,9.2-0.1,13.8-0.3c6.4,0.2,12.9,0.8,19.3,1c3.1,0,6.2,0.2,9.2-0.7l10.5-8.4    c-2.7,1.8-6.1,1.3-9.2,1.5c-6.4,0-12.8-0.6-19.2-1.2c-2.3,0-2.3-0.1-4.6,0.3c-3,0.4-5.9,1.2-8.9,0.5c-1.6-0.6-3.1-1.2-4.5-2.2    c-1.2-0.8-1.1-1-2.4-1.6c-0.5-0.2-0.9-0.4-1.4-0.6c-6.4,0.4-1.3-0.1-14.5,7.3c-1.8,1-3.5,2.2-5.1,3.4c-0.8-0.4-1.1-1.7-1.3-2.6    c-0.7-5.2-1.4-10.6-4.3-15.1c-0.5-0.5-0.8-1.6-1.4-1.4c-12.2,4.3-12.3,5.5-18.7,13.2c-1.2,1.3-2.4,2.6-3.6,3.9    c-0.2,0-0.4,0-0.7,0.1c-3.2,0.3-6.3,0.7-9.4,1.6c-2.5,0.5-3.5,0-4.9-2.1c-0.9-1.5-2.2-4.4-3.4-5.5c-0.3-0.3-0.6-0.4-0.9-0.6    c-4.9-0.2-9.6,4.5-13.4,8.3c0-2.7,0.1-5.4,0.5-8.1c1.2-7.6,3.2-15,5-22.4c1.5-6.2,3.2-12.4,4.5-18.7c0.1-0.3,1.3-6.7,1.4-7.7    c0-0.8-0.3-1.5-0.4-2.3c-2.9,1.6-5.9,2.9-8.6,4.7c-0.5,0.3-0.6,1-0.9,1.6c-0.5,1-1.1,2-1.6,2.9c-2.6,4.7-5.2,9.4-7.9,14    c-6.5,11.2-12.7,22.6-20,33.4c-2.5,3.3-5,6.5-7.9,9.4c-0.6,0.6-1.2,1.1-1.8,1.6c-0.4,0.3-1.8,1.2-1.4,0.9c2.4-1.3,4.8-2.7,7.2-4.1    l-7.4,5.9C103.9,202.4,108.7,201.8,111.6,199.1z"/>
	</g>
</g>
<div xmlns="" id="divScriptsUsed" style="display: none"/><script xmlns="" id="globalVarsDetection" src="moz-extension://0da9d1fa-314a-497f-81f4-dd7ba3255042/js/wrs_env.js"/></svg>