<?xml version="1.0" encoding="utf-8"?>
<!-- Generator: Adobe Illustrator 18.0.0, SVG Export Plug-In . SVG Version: 6.00 Build 0)  -->
<!DOCTYPE svg PUBLIC "-//W3C//DTD SVG 1.1//EN" "http://www.w3.org/Graphics/SVG/1.1/DTD/svg11.dtd">
<svg version="1.1" id="Слой_1" xmlns="http://www.w3.org/2000/svg" xmlns:xlink="http://www.w3.org/1999/xlink" x="0px" y="0px"
	 viewBox="0 0 425.2 85" enable-background="new 0 0 425.2 85" xml:space="preserve">
<g>
	<path fill="#FFFFFF" d="M227.9,52c-3.2-5.9-9.2-9.4-16.2-9.4c-10.5,0-18.8,8-18.8,19.9c0,11.8,8.3,19.9,18.8,19.9
		c7.4,0,13.7-4.1,16.8-10.7l2.2,0.7c-3.4,7.6-10.5,12.3-19,12.3c-11.6,0-21-9.3-21-22.2c0-12.9,9.4-22.2,21-22.2
		c7.9,0,14.8,4.3,18.4,11.1L227.9,52z"/>
	<path fill="#FFFFFF" d="M263,70.4h-22.3l-5.7,13.4h-2.4l18.2-42.7h1.9l18.2,42.7h-2.4L263,70.4z M262.1,68.3l-8.3-19.7
		c-0.9-2.1-1.8-4.6-1.9-4.6h-0.1c-0.1,0-1,2.6-1.9,4.6l-8.3,19.7H262.1z"/>
	<path fill="#FFFFFF" d="M290,41.2c9.2,0,14.7,4.9,14.7,13.1s-5.5,13.1-14.7,13.1h-8.7v16.5h-2.2V41.2H290z M290,65.2
		c8,0,12.4-4.2,12.4-10.9c0-7.1-4.8-10.9-12.4-10.9h-8.7v21.8H290z"/>
	<path fill="#FFFFFF" d="M314,83.8V41.2h2.2v42.7H314z"/>
	<path fill="#FFFFFF" d="M354.3,41.2v2.3h-14.2v40.4h-2.3V43.4h-14.2v-2.3H354.3z"/>
	<path fill="#FFFFFF" d="M383.6,70.4h-22.3l-5.7,13.4h-2.4l18.2-42.7h1.9l18.2,42.7h-2.4L383.6,70.4z M382.6,68.3l-8.3-19.7
		c-0.9-2.1-1.8-4.6-1.9-4.6h-0.1c-0.1,0-1,2.6-1.9,4.6l-8.3,19.7H382.6z"/>
	<path fill="#FFFFFF" d="M425.2,81.6v2.3H400V41.2h2.2v40.4H425.2z"/>
	<path fill="#FFFFFF" d="M0,37.9h18.2c9.8,0,16.6,4.5,16.6,15c0,10.8-5.8,15.5-16.2,15.5h-6.7v15.2H0V37.9z M11.9,58.9h2
		c4.3,0,8.5,0,8.5-5.6c0-5.8-3.9-5.8-8.5-5.8h-2V58.9z"/>
	<path fill="#FFFFFF" d="M50.7,48v7.6h13.4v10.1H50.7v7.9h14.1v10.1h-26V37.9h26V48H50.7z"/>
	<path fill="#FFFFFF" d="M82.5,75.7l-3.2,7.9H66.8l17.6-45.7h13l17.2,45.7h-12.7l-3-7.9H82.5z M90.8,52.1h-0.1l-4.9,14.6h9.9
		L90.8,52.1z"/>
	<path fill="#FFFFFF" d="M154.4,83.7h-14.8l-11.2-17.6h-0.1v17.6h-11.9V37.9h17.8c9,0,15.9,4.3,15.9,14.1c0,6.3-3.5,11.8-10,12.9
		L154.4,83.7z M128.3,58.4h1.2c3.9,0,8.2-0.7,8.2-5.7s-4.4-5.7-8.2-5.7h-1.2V58.4z"/>
	<polygon fill="#FFFFFF" points="166.9,43.3 155.5,52.5 155.5,83.7 181,83.7 181,73.7 166.9,73.7 	"/>
	<path fill="#FFFFFF" d="M194.3,10.7c1.2-1.1,3.8-3.6,6.1-5.9c0.4-0.4,0.9-0.7,1.4-0.7c1.7-0.1,3.5,1.6,3.5,1.6s-2.6-4.9-6.6-5.6
		c-1.9-0.4-4.1,0.6-6.4,2.7c-2.8,2.3-8,4.3-9.4,4.8c-0.7,0.3-30.9,9.4-30.9,9.4l24.2,0.2L155.5,47l35-28.4l-8.6,2.5
		C181.8,21.2,193.5,11.4,194.3,10.7z"/>
</g>
</svg>
