<?xml version="1.0" encoding="UTF-8"?>
<!-- Generator: Adobe Illustrator 18.0.0, SVG Export Plug-In . SVG Version: 6.00 Build 0)  -->
<!DOCTYPE svg PUBLIC "-//W3C//DTD SVG 1.1//EN" "http://www.w3.org/Graphics/SVG/1.1/DTD/svg11.dtd">
<svg version="1.1" id="Слой_1" xmlns="http://www.w3.org/2000/svg" xmlns:xlink="http://www.w3.org/1999/xlink" x="0px" y="0px" viewBox="0 0 354.3 354.3" enable-background="new 0 0 354.3 354.3" xml:space="preserve">
<g>
	<circle opacity="0.35" fill="#B7E1E9" cx="177.6" cy="177.7" r="178"/>
	<path fill="#1072BA" d="M91.2,109.2c-2,0-3.7,1.7-3.7,3.7v109.5c0,2,1.7,3.7,3.7,3.7h172.9c2,0,3.7-1.7,3.7-3.7V112.9   c0-2-1.7-3.7-3.7-3.7H91.2z M264.1,232.7H91.2c-5.7,0-10.3-4.7-10.3-10.3V112.9c0-5.7,4.7-10.3,10.3-10.3h172.9   c5.7,0,10.3,4.7,10.3,10.3v109.5C274.4,228.1,269.7,232.7,264.1,232.7z"/>
	<rect x="174.3" y="229.4" fill="#1072BA" width="6.7" height="20"/>
	<rect x="140.9" y="246.1" fill="#1072BA" width="73.4" height="6.7"/>
	<g>
		<path fill="#602A79" d="M182.7,183.6l-1.2-2.8c0,0,0.1,0,0.1,0h1.9L182.7,183.6z M225.8,147.3c0.6,0.2,1.3,0,1.8-0.5    c0.5-0.5,0.6-1.2,0.5-1.8l-1.9-7c-0.2-0.6-0.7-1.1-1.3-1.3c-0.7-0.2-1.3,0-1.8,0.5l-5,5.2c-0.5,0.5-0.6,1.2-0.5,1.8    c0.2,0.6,0.7,1.1,1.3,1.3l1,0.3l-8.5,33.2l-13.4-33.7c-0.4-1-1.3-1.6-2.4-1.6c-1.1,0.1-2,0.8-2.3,1.8l-9.3,33.8h-2.3    c-0.3,0-0.5,0.1-0.6,0.3l-6.7-15.4c-0.3-0.8-1-1.3-1.9-1.5c-0.1,0-0.2,0-0.3,0c-0.9,0-1.8,0.5-2.3,1.3l-8.1,15.3h-2.6    c-0.4,0-0.8,0.3-0.8,0.8s0.3,0.8,0.8,0.8h1.8l-2.7,5.2l-4.1-7.1c-0.3-0.6-0.9-1-1.6-1.2c-0.7-0.2-1.4,0-2,0.4l-1.8,1.2h-0.8    c-0.4,0-0.8,0.3-0.8,0.8c0,0.1,0,0.2,0.1,0.3l-20,13.8c-1.1,0.8-1.4,2.3-0.6,3.5c0.4,0.6,1,0.9,1.6,1c0.6,0.1,1.3,0,1.8-0.4    l21.1-14.6l5,8.7c0.4,0.6,1,1.1,1.8,1.2c0.1,0,0.3,0,0.4,0c0.9,0,1.7-0.5,2.1-1.3l11.4-21.4L181,192c0.3,0.8,1,1.3,1.9,1.5    c0.2,0,0.4,0,0.6,0c1.1-0.1,1.9-0.8,2.2-1.8l10.4-37.8l10,25.3h-2c-0.4,0-0.8,0.3-0.8,0.8c0,0.4,0.3,0.8,0.8,0.8h2.6l2.8,7    c0.3,0.8,1.1,1.4,1.9,1.5c0.2,0,0.4,0,0.6,0c1.1-0.1,2-0.8,2.2-1.9l1.7-6.7h2.6c0.4,0,0.8-0.3,0.8-0.8s-0.3-0.8-0.8-0.8h-2.2    l8.3-32.3L225.8,147.3z"/>
		<path fill="#0F91D1" d="M117.4,179.2h-1.5c-0.4,0-0.8,0.3-0.8,0.8c0,0.4,0.3,0.8,0.8,0.8h1.5c0.4,0,0.8-0.3,0.8-0.8    C118.2,179.6,117.8,179.2,117.4,179.2z"/>
		<path fill="#0F91D1" d="M136.7,180.8h3.2c0.4,0,0.8-0.3,0.8-0.8c0-0.4-0.3-0.8-0.8-0.8h-3.2c-0.4,0-0.8,0.3-0.8,0.8    C135.9,180.4,136.3,180.8,136.7,180.8z"/>
		<path fill="#0F91D1" d="M173.6,179.2h-3.2c-0.4,0-0.8,0.3-0.8,0.8c0,0.4,0.3,0.8,0.8,0.8h3.2c0.4,0,0.8-0.3,0.8-0.8    C174.4,179.6,174,179.2,173.6,179.2z"/>
		<path fill="#0F91D1" d="M129.4,180c0-0.4-0.3-0.8-0.8-0.8h-3.2c-0.4,0-0.8,0.3-0.8,0.8c0,0.4,0.3,0.8,0.8,0.8h3.2    C129.1,180.8,129.4,180.4,129.4,180z"/>
		<path fill="#0F91D1" d="M196.1,179.2h-3.2c-0.4,0-0.8,0.3-0.8,0.8c0,0.4,0.3,0.8,0.8,0.8h3.2c0.4,0,0.8-0.3,0.8-0.8    C196.9,179.6,196.5,179.2,196.1,179.2z"/>
		<path fill="#0F91D1" d="M229.8,179.2h-3.2c-0.4,0-0.8,0.3-0.8,0.8c0,0.4,0.3,0.8,0.8,0.8h3.2c0.4,0,0.8-0.3,0.8-0.8    C230.6,179.6,230.2,179.2,229.8,179.2z"/>
		<path fill="#0F91D1" d="M239.4,179.2h-1.5c-0.4,0-0.8,0.3-0.8,0.8c0,0.4,0.3,0.8,0.8,0.8h1.5c0.4,0,0.8-0.3,0.8-0.8    C240.1,179.6,239.8,179.2,239.4,179.2z"/>
	</g>
</g>
<div xmlns="" id="divScriptsUsed" style="display: none"/><script xmlns="" id="globalVarsDetection" src="moz-extension://0da9d1fa-314a-497f-81f4-dd7ba3255042/js/wrs_env.js"/></svg>