<?xml version="1.0" encoding="UTF-8"?>
<!-- Generator: Adobe Illustrator 16.0.0, SVG Export Plug-In . SVG Version: 6.00 Build 0)  -->
<!DOCTYPE svg PUBLIC "-//W3C//DTD SVG 1.1//EN" "http://www.w3.org/Graphics/SVG/1.1/DTD/svg11.dtd">
<svg version="1.1" id="Слой_1" xmlns="http://www.w3.org/2000/svg" xmlns:xlink="http://www.w3.org/1999/xlink" x="0px" y="0px" width="126px" height="126px" viewBox="0 0 126 126" enable-background="new 0 0 126 126" xml:space="preserve">
<g opacity="0.35">
	<g>
		<defs>
			<rect id="SVGID_1_" x="0.616" y="0.65" width="125" height="125"/>
		</defs>
		<clipPath id="SVGID_2_">
			<use xlink:href="#SVGID_1_" overflow="visible"/>
		</clipPath>
		<path clip-path="url(#SVGID_2_)" fill="#B6E1E9" d="M125.616,63.154c0,34.518-27.982,62.5-62.5,62.5    c-34.519,0-62.5-27.982-62.5-62.5s27.981-62.5,62.5-62.5C97.634,0.654,125.616,28.636,125.616,63.154"/>
	</g>
</g>
<polygon fill="#601A7A" points="56.355,71.023 53.705,68.367 46.619,75.449 39.583,68.368 36.921,71.026 43.957,78.107   36.839,85.187 39.49,87.842 46.621,80.717 53.706,87.84 56.355,85.187 49.225,78.105 "/>
<rect x="73" y="45.999" fill="#0D1272" width="14" height="5"/>
<polygon fill="#0091D1" points="57,46 49,46 49,38 45,38 45,46 37,46 37,50 45,50 45,58 49,58 49,50 57,50 "/>
<path fill="#0071BC" d="M80.783,83.419c-0.354-0.151-0.732-0.229-1.128-0.229c-0.406,0-0.794,0.078-1.15,0.229  c-0.365,0.151-0.687,0.365-0.96,0.64c-0.282,0.277-0.498,0.588-0.664,0.953c-0.165,0.356-0.244,0.735-0.244,1.16  c0,0.367,0.083,0.739,0.246,1.105c0.16,0.363,0.382,0.688,0.661,0.966c0.273,0.282,0.588,0.497,0.967,0.663  c0.711,0.321,1.6,0.342,2.271-0.009c0.382-0.194,0.69-0.423,0.948-0.702c0.27-0.295,0.49-0.629,0.656-0.987  c0.166-0.339,0.247-0.683,0.247-1.031c0-0.427-0.08-0.804-0.246-1.154c-0.158-0.361-0.372-0.673-0.661-0.967  C81.452,83.781,81.142,83.572,80.783,83.419"/>
<path fill="#0071BC" d="M80.783,66.173c-0.352-0.156-0.729-0.233-1.128-0.233c-0.811,0-1.504,0.288-2.116,0.879  c-0.608,0.583-0.902,1.284-0.902,2.146c0,0.394,0.083,0.778,0.246,1.146c0.16,0.363,0.382,0.688,0.662,0.967  c0.265,0.274,0.576,0.482,0.957,0.64c0.721,0.298,1.604,0.317,2.295-0.013c0.36-0.166,0.673-0.393,0.933-0.677  c0.275-0.299,0.49-0.624,0.656-0.988c0.169-0.346,0.248-0.694,0.248-1.078c0-0.425-0.083-0.821-0.247-1.179  c-0.166-0.373-0.387-0.698-0.662-0.973C81.443,66.531,81.136,66.322,80.783,66.173"/>
<rect x="70" y="76.999" fill="#0071BC" width="20" height="3"/>
<div xmlns="" id="divScriptsUsed" style="display: none"/><script xmlns="" id="globalVarsDetection" src="moz-extension://0da9d1fa-314a-497f-81f4-dd7ba3255042/js/wrs_env.js"/></svg>