<?xml version="1.0" encoding="UTF-8" standalone="no"?>
<svg width="145px" height="109px" viewBox="0 0 145 109" version="1.1" xmlns="http://www.w3.org/2000/svg" xmlns:xlink="http://www.w3.org/1999/xlink" xmlns:sketch="http://www.bohemiancoding.com/sketch/ns">
    <!-- Generator: Sketch 3.5.1 (25234) - http://www.bohemiancoding.com/sketch -->
    <title>Design Icon</title>
    <desc>Created with Sketch.</desc>
    <defs>
        <path id="path-1" d="M0,1.1297619 L98.8702381,1.1297619 L98.8702381,100 L0,100 L0,1.1297619 Z"></path>
    </defs>
    <g id="Main-Screens---Desktop" stroke="none" stroke-width="1" fill="none" fill-rule="evenodd" sketch:type="MSPage">
        <g id="Home---Desktop" sketch:type="MSArtboardGroup" transform="translate(-252.000000, -938.000000)">
            <g id="SERVICES-SECTION" sketch:type="MSLayerGroup" transform="translate(160.000000, 634.000000)">
                <g id="Design-Box" transform="translate(0.000000, 278.000000)">
                    <g id="Design-Icon" transform="translate(92.000000, 25.000000)">
                        <ellipse id="Oval-78" fill="#1BC6FB" sketch:type="MSShapeGroup" cx="99.2450593" cy="64.1559633" rx="44.7957839" ry="44.8985265"></ellipse>
                        <g id="Page-1">
                            <mask id="mask-2" sketch:name="Clip 2" fill="white">
                                <use xlink:href="#path-1"></use>
                            </mask>
                            <g id="Clip-2"></g>
                            <path d="M53.8775,96.4285714 L53.879881,92.1511905 C53.879881,71.6702381 70.5417857,55.0083333 91.0227381,55.0083333 L95.2989286,55.0083333 L95.2989286,96.4285714 L53.8775,96.4285714 Z M30.3108333,59.4166667 C30.3108333,54.1369048 31.7822619,49.1940476 34.3358333,44.9761905 L35.5727381,46.2119048 C36.5025,47.1416667 38.0096429,47.1416667 38.9394048,46.2119048 L45.0834524,40.0690476 C46.0120238,39.1392857 46.0120238,37.6309524 45.0834524,36.7011905 L43.8465476,35.4654762 C48.0644048,32.9119048 53.0072619,31.4404762 58.2870238,31.4404762 L95.2989286,31.4404762 L95.2989286,51.4369048 L91.0227381,51.4369048 C68.5727381,51.4369048 50.3084524,69.7011905 50.3084524,92.15 L50.3060714,96.4285714 L30.3108333,96.4285714 L30.3108333,59.4166667 Z M95.8941667,27.8690476 L58.2870238,27.8690476 C55.0025,27.8690476 51.8346429,28.375 48.854881,29.3107143 L71.125119,7.04047619 C71.2608333,7.05952381 71.3953571,7.08214286 71.5358333,7.08214286 C73.1786905,7.08214286 74.5120238,5.74880952 74.5120238,4.10595238 C74.5120238,2.46190476 73.1786905,1.1297619 71.5358333,1.1297619 C69.8917857,1.1297619 68.5596429,2.46190476 68.5596429,4.10595238 C68.5596429,4.2452381 68.5810714,4.3797619 68.600119,4.51547619 L40.7477381,32.3666667 L38.9394048,30.5583333 C38.0096429,29.6285714 36.5025,29.6285714 35.5727381,30.5583333 L29.4286905,36.7011905 C28.4989286,37.6309524 28.4989286,39.1392857 29.4286905,40.0690476 L31.2382143,41.877381 L3.38583333,69.7297619 C3.25011905,69.7107143 3.11678571,69.6880952 2.97630952,69.6880952 C1.3322619,69.6880952 0.000119047619,71.0214286 0.000119047619,72.6642857 C0.000119047619,74.3083333 1.3322619,75.6404762 2.97630952,75.6404762 C4.62035714,75.6404762 5.9525,74.3083333 5.9525,72.6642857 C5.9525,72.5238095 5.92988095,72.3904762 5.91083333,72.2547619 L28.1810714,49.9845238 C27.2453571,52.9642857 26.7394048,56.1321429 26.7394048,59.4166667 L26.7394048,97.0238095 C26.7394048,98.6642857 28.0739286,100 29.7155952,100 L95.8941667,100 C97.5358333,100 98.8703571,98.6642857 98.8703571,97.0238095 L98.8703571,30.8452381 C98.8703571,29.2047619 97.5358333,27.8690476 95.8941667,27.8690476 L95.8941667,27.8690476 Z" id="Fill-1" fill="#000000" sketch:type="MSShapeGroup" mask="url(#mask-2)"></path>
                        </g>
                    </g>
                </g>
            </g>
        </g>
    </g>
</svg>